<?xml version="1.0" encoding="UTF-8" ?>
<svg version="1.1" width="250" height="80" xmlns="http://www.w3.org/2000/svg" shape-rendering="crispEdges">
<rect x="70" y="0" width="5" height="5" fill="#000000" />
<rect x="75" y="0" width="5" height="5" fill="#000000" />
<rect x="80" y="0" width="5" height="5" fill="#000000" />
<rect x="155" y="0" width="5" height="5" fill="#000000" />
<rect x="160" y="0" width="5" height="5" fill="#000000" />
<rect x="165" y="0" width="5" height="5" fill="#000000" />
<rect x="65" y="5" width="5" height="5" fill="#000000" />
<rect x="70" y="5" width="5" height="5" fill="#847E87" />
<rect x="75" y="5" width="5" height="5" fill="#847E87" />
<rect x="80" y="5" width="5" height="5" fill="#847E87" />
<rect x="85" y="5" width="5" height="5" fill="#000000" />
<rect x="90" y="5" width="5" height="5" fill="#000000" />
<rect x="145" y="5" width="5" height="5" fill="#000000" />
<rect x="150" y="5" width="5" height="5" fill="#000000" />
<rect x="155" y="5" width="5" height="5" fill="#847E87" />
<rect x="160" y="5" width="5" height="5" fill="#847E87" />
<rect x="165" y="5" width="5" height="5" fill="#847E87" />
<rect x="170" y="5" width="5" height="5" fill="#000000" />
<rect x="65" y="10" width="5" height="5" fill="#000000" />
<rect x="70" y="10" width="5" height="5" fill="#847E87" />
<rect x="75" y="10" width="5" height="5" fill="#847E87" />
<rect x="80" y="10" width="5" height="5" fill="#847E87" />
<rect x="85" y="10" width="5" height="5" fill="#847E87" />
<rect x="90" y="10" width="5" height="5" fill="#847E87" />
<rect x="95" y="10" width="5" height="5" fill="#000000" />
<rect x="140" y="10" width="5" height="5" fill="#000000" />
<rect x="145" y="10" width="5" height="5" fill="#847E87" />
<rect x="150" y="10" width="5" height="5" fill="#847E87" />
<rect x="155" y="10" width="5" height="5" fill="#847E87" />
<rect x="160" y="10" width="5" height="5" fill="#847E87" />
<rect x="165" y="10" width="5" height="5" fill="#847E87" />
<rect x="170" y="10" width="5" height="5" fill="#000000" />
<rect x="65" y="15" width="5" height="5" fill="#000000" />
<rect x="70" y="15" width="5" height="5" fill="#847E87" />
<rect x="75" y="15" width="5" height="5" fill="#847E87" />
<rect x="80" y="15" width="5" height="5" fill="#847E87" />
<rect x="85" y="15" width="5" height="5" fill="#847E87" />
<rect x="90" y="15" width="5" height="5" fill="#847E87" />
<rect x="95" y="15" width="5" height="5" fill="#000000" />
<rect x="100" y="15" width="5" height="5" fill="#000000" />
<rect x="105" y="15" width="5" height="5" fill="#000000" />
<rect x="110" y="15" width="5" height="5" fill="#000000" />
<rect x="115" y="15" width="5" height="5" fill="#000000" />
<rect x="120" y="15" width="5" height="5" fill="#000000" />
<rect x="125" y="15" width="5" height="5" fill="#000000" />
<rect x="130" y="15" width="5" height="5" fill="#000000" />
<rect x="135" y="15" width="5" height="5" fill="#000000" />
<rect x="140" y="15" width="5" height="5" fill="#000000" />
<rect x="145" y="15" width="5" height="5" fill="#847E87" />
<rect x="150" y="15" width="5" height="5" fill="#847E87" />
<rect x="155" y="15" width="5" height="5" fill="#847E87" />
<rect x="160" y="15" width="5" height="5" fill="#847E87" />
<rect x="165" y="15" width="5" height="5" fill="#847E87" />
<rect x="170" y="15" width="5" height="5" fill="#000000" />
<rect x="60" y="20" width="5" height="5" fill="#000000" />
<rect x="65" y="20" width="5" height="5" fill="#847E87" />
<rect x="70" y="20" width="5" height="5" fill="#847E87" />
<rect x="75" y="20" width="5" height="5" fill="#847E87" />
<rect x="80" y="20" width="5" height="5" fill="#847E87" />
<rect x="85" y="20" width="5" height="5" fill="#847E87" />
<rect x="90" y="20" width="5" height="5" fill="#847E87" />
<rect x="95" y="20" width="5" height="5" fill="#847E87" />
<rect x="100" y="20" width="5" height="5" fill="#847E87" />
<rect x="105" y="20" width="5" height="5" fill="#847E87" />
<rect x="110" y="20" width="5" height="5" fill="#847E87" />
<rect x="115" y="20" width="5" height="5" fill="#847E87" />
<rect x="120" y="20" width="5" height="5" fill="#847E87" />
<rect x="125" y="20" width="5" height="5" fill="#847E87" />
<rect x="130" y="20" width="5" height="5" fill="#847E87" />
<rect x="135" y="20" width="5" height="5" fill="#847E87" />
<rect x="140" y="20" width="5" height="5" fill="#847E87" />
<rect x="145" y="20" width="5" height="5" fill="#847E87" />
<rect x="150" y="20" width="5" height="5" fill="#847E87" />
<rect x="155" y="20" width="5" height="5" fill="#847E87" />
<rect x="160" y="20" width="5" height="5" fill="#847E87" />
<rect x="165" y="20" width="5" height="5" fill="#847E87" />
<rect x="170" y="20" width="5" height="5" fill="#847E87" />
<rect x="175" y="20" width="5" height="5" fill="#000000" />
<rect x="50" y="25" width="5" height="5" fill="#000000" />
<rect x="60" y="25" width="5" height="5" fill="#000000" />
<rect x="65" y="25" width="5" height="5" fill="#847E87" />
<rect x="70" y="25" width="5" height="5" fill="#847E87" />
<rect x="75" y="25" width="5" height="5" fill="#847E87" />
<rect x="80" y="25" width="5" height="5" fill="#847E87" />
<rect x="85" y="25" width="5" height="5" fill="#847E87" />
<rect x="90" y="25" width="5" height="5" fill="#847E87" />
<rect x="95" y="25" width="5" height="5" fill="#847E87" />
<rect x="100" y="25" width="5" height="5" fill="#847E87" />
<rect x="105" y="25" width="5" height="5" fill="#847E87" />
<rect x="110" y="25" width="5" height="5" fill="#847E87" />
<rect x="115" y="25" width="5" height="5" fill="#847E87" />
<rect x="120" y="25" width="5" height="5" fill="#847E87" />
<rect x="125" y="25" width="5" height="5" fill="#847E87" />
<rect x="130" y="25" width="5" height="5" fill="#847E87" />
<rect x="135" y="25" width="5" height="5" fill="#847E87" />
<rect x="140" y="25" width="5" height="5" fill="#847E87" />
<rect x="145" y="25" width="5" height="5" fill="#847E87" />
<rect x="150" y="25" width="5" height="5" fill="#847E87" />
<rect x="155" y="25" width="5" height="5" fill="#847E87" />
<rect x="160" y="25" width="5" height="5" fill="#847E87" />
<rect x="165" y="25" width="5" height="5" fill="#847E87" />
<rect x="170" y="25" width="5" height="5" fill="#847E87" />
<rect x="175" y="25" width="5" height="5" fill="#000000" />
<rect x="55" y="30" width="5" height="5" fill="#000000" />
<rect x="60" y="30" width="5" height="5" fill="#000000" />
<rect x="65" y="30" width="5" height="5" fill="#847E87" />
<rect x="70" y="30" width="5" height="5" fill="#847E87" />
<rect x="75" y="30" width="5" height="5" fill="#847E87" />
<rect x="80" y="30" width="5" height="5" fill="#847E87" />
<rect x="85" y="30" width="5" height="5" fill="#847E87" />
<rect x="90" y="30" width="5" height="5" fill="#847E87" />
<rect x="95" y="30" width="5" height="5" fill="#000000" />
<rect x="100" y="30" width="5" height="5" fill="#847E87" />
<rect x="105" y="30" width="5" height="5" fill="#847E87" />
<rect x="110" y="30" width="5" height="5" fill="#847E87" />
<rect x="115" y="30" width="5" height="5" fill="#847E87" />
<rect x="120" y="30" width="5" height="5" fill="#847E87" />
<rect x="125" y="30" width="5" height="5" fill="#847E87" />
<rect x="130" y="30" width="5" height="5" fill="#000000" />
<rect x="135" y="30" width="5" height="5" fill="#847E87" />
<rect x="140" y="30" width="5" height="5" fill="#847E87" />
<rect x="145" y="30" width="5" height="5" fill="#847E87" />
<rect x="150" y="30" width="5" height="5" fill="#847E87" />
<rect x="155" y="30" width="5" height="5" fill="#847E87" />
<rect x="160" y="30" width="5" height="5" fill="#847E87" />
<rect x="165" y="30" width="5" height="5" fill="#847E87" />
<rect x="170" y="30" width="5" height="5" fill="#847E87" />
<rect x="175" y="30" width="5" height="5" fill="#000000" />
<rect x="185" y="30" width="5" height="5" fill="#000000" />
<rect x="45" y="35" width="5" height="5" fill="#000000" />
<rect x="60" y="35" width="5" height="5" fill="#000000" />
<rect x="65" y="35" width="5" height="5" fill="#847E87" />
<rect x="70" y="35" width="5" height="5" fill="#847E87" />
<rect x="75" y="35" width="5" height="5" fill="#847E87" />
<rect x="80" y="35" width="5" height="5" fill="#847E87" />
<rect x="85" y="35" width="5" height="5" fill="#847E87" />
<rect x="90" y="35" width="5" height="5" fill="#847E87" />
<rect x="95" y="35" width="5" height="5" fill="#847E87" />
<rect x="100" y="35" width="5" height="5" fill="#847E87" />
<rect x="105" y="35" width="5" height="5" fill="#847E87" />
<rect x="110" y="35" width="5" height="5" fill="#000000" />
<rect x="115" y="35" width="5" height="5" fill="#847E87" />
<rect x="120" y="35" width="5" height="5" fill="#847E87" />
<rect x="125" y="35" width="5" height="5" fill="#847E87" />
<rect x="130" y="35" width="5" height="5" fill="#847E87" />
<rect x="135" y="35" width="5" height="5" fill="#847E87" />
<rect x="140" y="35" width="5" height="5" fill="#847E87" />
<rect x="145" y="35" width="5" height="5" fill="#847E87" />
<rect x="150" y="35" width="5" height="5" fill="#847E87" />
<rect x="155" y="35" width="5" height="5" fill="#847E87" />
<rect x="160" y="35" width="5" height="5" fill="#847E87" />
<rect x="165" y="35" width="5" height="5" fill="#847E87" />
<rect x="170" y="35" width="5" height="5" fill="#847E87" />
<rect x="175" y="35" width="5" height="5" fill="#000000" />
<rect x="180" y="35" width="5" height="5" fill="#000000" />
<rect x="50" y="40" width="5" height="5" fill="#000000" />
<rect x="55" y="40" width="5" height="5" fill="#000000" />
<rect x="60" y="40" width="5" height="5" fill="#847E87" />
<rect x="65" y="40" width="5" height="5" fill="#847E87" />
<rect x="70" y="40" width="5" height="5" fill="#847E87" />
<rect x="75" y="40" width="5" height="5" fill="#847E87" />
<rect x="80" y="40" width="5" height="5" fill="#847E87" />
<rect x="85" y="40" width="5" height="5" fill="#847E87" />
<rect x="90" y="40" width="5" height="5" fill="#847E87" />
<rect x="95" y="40" width="5" height="5" fill="#847E87" />
<rect x="100" y="40" width="5" height="5" fill="#847E87" />
<rect x="105" y="40" width="5" height="5" fill="#000000" />
<rect x="110" y="40" width="5" height="5" fill="#847E87" />
<rect x="115" y="40" width="5" height="5" fill="#000000" />
<rect x="120" y="40" width="5" height="5" fill="#847E87" />
<rect x="125" y="40" width="5" height="5" fill="#847E87" />
<rect x="130" y="40" width="5" height="5" fill="#847E87" />
<rect x="135" y="40" width="5" height="5" fill="#847E87" />
<rect x="140" y="40" width="5" height="5" fill="#847E87" />
<rect x="145" y="40" width="5" height="5" fill="#847E87" />
<rect x="150" y="40" width="5" height="5" fill="#847E87" />
<rect x="155" y="40" width="5" height="5" fill="#847E87" />
<rect x="160" y="40" width="5" height="5" fill="#847E87" />
<rect x="165" y="40" width="5" height="5" fill="#847E87" />
<rect x="170" y="40" width="5" height="5" fill="#847E87" />
<rect x="175" y="40" width="5" height="5" fill="#000000" />
<rect x="190" y="40" width="5" height="5" fill="#000000" />
<rect x="55" y="45" width="5" height="5" fill="#000000" />
<rect x="60" y="45" width="5" height="5" fill="#847E87" />
<rect x="65" y="45" width="5" height="5" fill="#847E87" />
<rect x="70" y="45" width="5" height="5" fill="#847E87" />
<rect x="75" y="45" width="5" height="5" fill="#847E87" />
<rect x="80" y="45" width="5" height="5" fill="#847E87" />
<rect x="85" y="45" width="5" height="5" fill="#847E87" />
<rect x="90" y="45" width="5" height="5" fill="#847E87" />
<rect x="95" y="45" width="5" height="5" fill="#847E87" />
<rect x="100" y="45" width="5" height="5" fill="#847E87" />
<rect x="105" y="45" width="5" height="5" fill="#847E87" />
<rect x="110" y="45" width="5" height="5" fill="#847E87" />
<rect x="115" y="45" width="5" height="5" fill="#847E87" />
<rect x="120" y="45" width="5" height="5" fill="#847E87" />
<rect x="125" y="45" width="5" height="5" fill="#847E87" />
<rect x="130" y="45" width="5" height="5" fill="#847E87" />
<rect x="135" y="45" width="5" height="5" fill="#847E87" />
<rect x="140" y="45" width="5" height="5" fill="#847E87" />
<rect x="145" y="45" width="5" height="5" fill="#847E87" />
<rect x="150" y="45" width="5" height="5" fill="#847E87" />
<rect x="155" y="45" width="5" height="5" fill="#847E87" />
<rect x="160" y="45" width="5" height="5" fill="#847E87" />
<rect x="165" y="45" width="5" height="5" fill="#847E87" />
<rect x="170" y="45" width="5" height="5" fill="#847E87" />
<rect x="175" y="45" width="5" height="5" fill="#847E87" />
<rect x="180" y="45" width="5" height="5" fill="#000000" />
<rect x="185" y="45" width="5" height="5" fill="#000000" />
<rect x="215" y="45" width="5" height="5" fill="#000000" />
<rect x="220" y="45" width="5" height="5" fill="#000000" />
<rect x="225" y="45" width="5" height="5" fill="#000000" />
<rect x="230" y="45" width="5" height="5" fill="#000000" />
<rect x="235" y="45" width="5" height="5" fill="#000000" />
<rect x="50" y="50" width="5" height="5" fill="#000000" />
<rect x="55" y="50" width="5" height="5" fill="#847E87" />
<rect x="60" y="50" width="5" height="5" fill="#847E87" />
<rect x="65" y="50" width="5" height="5" fill="#847E87" />
<rect x="70" y="50" width="5" height="5" fill="#847E87" />
<rect x="75" y="50" width="5" height="5" fill="#847E87" />
<rect x="80" y="50" width="5" height="5" fill="#847E87" />
<rect x="85" y="50" width="5" height="5" fill="#847E87" />
<rect x="90" y="50" width="5" height="5" fill="#847E87" />
<rect x="95" y="50" width="5" height="5" fill="#847E87" />
<rect x="100" y="50" width="5" height="5" fill="#847E87" />
<rect x="105" y="50" width="5" height="5" fill="#847E87" />
<rect x="110" y="50" width="5" height="5" fill="#847E87" />
<rect x="115" y="50" width="5" height="5" fill="#847E87" />
<rect x="120" y="50" width="5" height="5" fill="#847E87" />
<rect x="125" y="50" width="5" height="5" fill="#847E87" />
<rect x="130" y="50" width="5" height="5" fill="#847E87" />
<rect x="135" y="50" width="5" height="5" fill="#847E87" />
<rect x="140" y="50" width="5" height="5" fill="#847E87" />
<rect x="145" y="50" width="5" height="5" fill="#847E87" />
<rect x="150" y="50" width="5" height="5" fill="#847E87" />
<rect x="155" y="50" width="5" height="5" fill="#847E87" />
<rect x="160" y="50" width="5" height="5" fill="#847E87" />
<rect x="165" y="50" width="5" height="5" fill="#847E87" />
<rect x="170" y="50" width="5" height="5" fill="#847E87" />
<rect x="175" y="50" width="5" height="5" fill="#847E87" />
<rect x="180" y="50" width="5" height="5" fill="#000000" />
<rect x="210" y="50" width="5" height="5" fill="#000000" />
<rect x="215" y="50" width="5" height="5" fill="#847E87" />
<rect x="220" y="50" width="5" height="5" fill="#847E87" />
<rect x="225" y="50" width="5" height="5" fill="#847E87" />
<rect x="230" y="50" width="5" height="5" fill="#847E87" />
<rect x="235" y="50" width="5" height="5" fill="#847E87" />
<rect x="240" y="50" width="5" height="5" fill="#000000" />
<rect x="50" y="55" width="5" height="5" fill="#000000" />
<rect x="55" y="55" width="5" height="5" fill="#847E87" />
<rect x="60" y="55" width="5" height="5" fill="#847E87" />
<rect x="65" y="55" width="5" height="5" fill="#847E87" />
<rect x="70" y="55" width="5" height="5" fill="#847E87" />
<rect x="75" y="55" width="5" height="5" fill="#847E87" />
<rect x="80" y="55" width="5" height="5" fill="#847E87" />
<rect x="85" y="55" width="5" height="5" fill="#847E87" />
<rect x="90" y="55" width="5" height="5" fill="#847E87" />
<rect x="95" y="55" width="5" height="5" fill="#847E87" />
<rect x="100" y="55" width="5" height="5" fill="#847E87" />
<rect x="105" y="55" width="5" height="5" fill="#847E87" />
<rect x="110" y="55" width="5" height="5" fill="#847E87" />
<rect x="115" y="55" width="5" height="5" fill="#847E87" />
<rect x="120" y="55" width="5" height="5" fill="#847E87" />
<rect x="125" y="55" width="5" height="5" fill="#847E87" />
<rect x="130" y="55" width="5" height="5" fill="#847E87" />
<rect x="135" y="55" width="5" height="5" fill="#847E87" />
<rect x="140" y="55" width="5" height="5" fill="#847E87" />
<rect x="145" y="55" width="5" height="5" fill="#847E87" />
<rect x="150" y="55" width="5" height="5" fill="#847E87" />
<rect x="155" y="55" width="5" height="5" fill="#847E87" />
<rect x="160" y="55" width="5" height="5" fill="#847E87" />
<rect x="165" y="55" width="5" height="5" fill="#847E87" />
<rect x="170" y="55" width="5" height="5" fill="#847E87" />
<rect x="175" y="55" width="5" height="5" fill="#847E87" />
<rect x="180" y="55" width="5" height="5" fill="#000000" />
<rect x="205" y="55" width="5" height="5" fill="#000000" />
<rect x="210" y="55" width="5" height="5" fill="#847E87" />
<rect x="215" y="55" width="5" height="5" fill="#847E87" />
<rect x="220" y="55" width="5" height="5" fill="#847E87" />
<rect x="225" y="55" width="5" height="5" fill="#847E87" />
<rect x="230" y="55" width="5" height="5" fill="#847E87" />
<rect x="235" y="55" width="5" height="5" fill="#847E87" />
<rect x="240" y="55" width="5" height="5" fill="#000000" />
<rect x="50" y="60" width="5" height="5" fill="#000000" />
<rect x="55" y="60" width="5" height="5" fill="#847E87" />
<rect x="60" y="60" width="5" height="5" fill="#847E87" />
<rect x="65" y="60" width="5" height="5" fill="#847E87" />
<rect x="70" y="60" width="5" height="5" fill="#847E87" />
<rect x="75" y="60" width="5" height="5" fill="#847E87" />
<rect x="80" y="60" width="5" height="5" fill="#847E87" />
<rect x="85" y="60" width="5" height="5" fill="#847E87" />
<rect x="90" y="60" width="5" height="5" fill="#847E87" />
<rect x="95" y="60" width="5" height="5" fill="#847E87" />
<rect x="100" y="60" width="5" height="5" fill="#847E87" />
<rect x="105" y="60" width="5" height="5" fill="#847E87" />
<rect x="110" y="60" width="5" height="5" fill="#847E87" />
<rect x="115" y="60" width="5" height="5" fill="#847E87" />
<rect x="120" y="60" width="5" height="5" fill="#847E87" />
<rect x="125" y="60" width="5" height="5" fill="#847E87" />
<rect x="130" y="60" width="5" height="5" fill="#847E87" />
<rect x="135" y="60" width="5" height="5" fill="#847E87" />
<rect x="140" y="60" width="5" height="5" fill="#847E87" />
<rect x="145" y="60" width="5" height="5" fill="#847E87" />
<rect x="150" y="60" width="5" height="5" fill="#847E87" />
<rect x="155" y="60" width="5" height="5" fill="#847E87" />
<rect x="160" y="60" width="5" height="5" fill="#847E87" />
<rect x="165" y="60" width="5" height="5" fill="#847E87" />
<rect x="170" y="60" width="5" height="5" fill="#847E87" />
<rect x="175" y="60" width="5" height="5" fill="#847E87" />
<rect x="180" y="60" width="5" height="5" fill="#000000" />
<rect x="200" y="60" width="5" height="5" fill="#000000" />
<rect x="205" y="60" width="5" height="5" fill="#847E87" />
<rect x="210" y="60" width="5" height="5" fill="#847E87" />
<rect x="215" y="60" width="5" height="5" fill="#847E87" />
<rect x="220" y="60" width="5" height="5" fill="#847E87" />
<rect x="225" y="60" width="5" height="5" fill="#847E87" />
<rect x="230" y="60" width="5" height="5" fill="#847E87" />
<rect x="235" y="60" width="5" height="5" fill="#847E87" />
<rect x="240" y="60" width="5" height="5" fill="#000000" />
<rect x="50" y="65" width="5" height="5" fill="#000000" />
<rect x="55" y="65" width="5" height="5" fill="#847E87" />
<rect x="60" y="65" width="5" height="5" fill="#847E87" />
<rect x="65" y="65" width="5" height="5" fill="#847E87" />
<rect x="70" y="65" width="5" height="5" fill="#847E87" />
<rect x="75" y="65" width="5" height="5" fill="#847E87" />
<rect x="80" y="65" width="5" height="5" fill="#847E87" />
<rect x="85" y="65" width="5" height="5" fill="#847E87" />
<rect x="90" y="65" width="5" height="5" fill="#847E87" />
<rect x="95" y="65" width="5" height="5" fill="#847E87" />
<rect x="100" y="65" width="5" height="5" fill="#847E87" />
<rect x="105" y="65" width="5" height="5" fill="#847E87" />
<rect x="110" y="65" width="5" height="5" fill="#847E87" />
<rect x="115" y="65" width="5" height="5" fill="#847E87" />
<rect x="120" y="65" width="5" height="5" fill="#847E87" />
<rect x="125" y="65" width="5" height="5" fill="#847E87" />
<rect x="130" y="65" width="5" height="5" fill="#847E87" />
<rect x="135" y="65" width="5" height="5" fill="#847E87" />
<rect x="140" y="65" width="5" height="5" fill="#847E87" />
<rect x="145" y="65" width="5" height="5" fill="#847E87" />
<rect x="150" y="65" width="5" height="5" fill="#847E87" />
<rect x="155" y="65" width="5" height="5" fill="#847E87" />
<rect x="160" y="65" width="5" height="5" fill="#847E87" />
<rect x="165" y="65" width="5" height="5" fill="#847E87" />
<rect x="170" y="65" width="5" height="5" fill="#847E87" />
<rect x="175" y="65" width="5" height="5" fill="#847E87" />
<rect x="180" y="65" width="5" height="5" fill="#000000" />
<rect x="185" y="65" width="5" height="5" fill="#000000" />
<rect x="190" y="65" width="5" height="5" fill="#000000" />
<rect x="195" y="65" width="5" height="5" fill="#000000" />
<rect x="200" y="65" width="5" height="5" fill="#847E87" />
<rect x="205" y="65" width="5" height="5" fill="#847E87" />
<rect x="210" y="65" width="5" height="5" fill="#847E87" />
<rect x="215" y="65" width="5" height="5" fill="#847E87" />
<rect x="220" y="65" width="5" height="5" fill="#847E87" />
<rect x="225" y="65" width="5" height="5" fill="#847E87" />
<rect x="230" y="65" width="5" height="5" fill="#847E87" />
<rect x="235" y="65" width="5" height="5" fill="#000000" />
<rect x="50" y="70" width="5" height="5" fill="#000000" />
<rect x="55" y="70" width="5" height="5" fill="#847E87" />
<rect x="60" y="70" width="5" height="5" fill="#847E87" />
<rect x="65" y="70" width="5" height="5" fill="#847E87" />
<rect x="70" y="70" width="5" height="5" fill="#847E87" />
<rect x="75" y="70" width="5" height="5" fill="#847E87" />
<rect x="80" y="70" width="5" height="5" fill="#847E87" />
<rect x="85" y="70" width="5" height="5" fill="#847E87" />
<rect x="90" y="70" width="5" height="5" fill="#847E87" />
<rect x="95" y="70" width="5" height="5" fill="#847E87" />
<rect x="100" y="70" width="5" height="5" fill="#847E87" />
<rect x="105" y="70" width="5" height="5" fill="#847E87" />
<rect x="110" y="70" width="5" height="5" fill="#847E87" />
<rect x="115" y="70" width="5" height="5" fill="#847E87" />
<rect x="120" y="70" width="5" height="5" fill="#847E87" />
<rect x="125" y="70" width="5" height="5" fill="#847E87" />
<rect x="130" y="70" width="5" height="5" fill="#847E87" />
<rect x="135" y="70" width="5" height="5" fill="#847E87" />
<rect x="140" y="70" width="5" height="5" fill="#847E87" />
<rect x="145" y="70" width="5" height="5" fill="#847E87" />
<rect x="150" y="70" width="5" height="5" fill="#847E87" />
<rect x="155" y="70" width="5" height="5" fill="#847E87" />
<rect x="160" y="70" width="5" height="5" fill="#847E87" />
<rect x="165" y="70" width="5" height="5" fill="#847E87" />
<rect x="170" y="70" width="5" height="5" fill="#847E87" />
<rect x="175" y="70" width="5" height="5" fill="#847E87" />
<rect x="180" y="70" width="5" height="5" fill="#000000" />
<rect x="185" y="70" width="5" height="5" fill="#847E87" />
<rect x="190" y="70" width="5" height="5" fill="#847E87" />
<rect x="195" y="70" width="5" height="5" fill="#847E87" />
<rect x="200" y="70" width="5" height="5" fill="#847E87" />
<rect x="205" y="70" width="5" height="5" fill="#847E87" />
<rect x="210" y="70" width="5" height="5" fill="#847E87" />
<rect x="215" y="70" width="5" height="5" fill="#847E87" />
<rect x="220" y="70" width="5" height="5" fill="#000000" />
<rect x="225" y="70" width="5" height="5" fill="#000000" />
<rect x="230" y="70" width="5" height="5" fill="#000000" />
<rect x="50" y="75" width="5" height="5" fill="#000000" />
<rect x="55" y="75" width="5" height="5" fill="#847E87" />
<rect x="60" y="75" width="5" height="5" fill="#847E87" />
<rect x="65" y="75" width="5" height="5" fill="#847E87" />
<rect x="70" y="75" width="5" height="5" fill="#847E87" />
<rect x="75" y="75" width="5" height="5" fill="#847E87" />
<rect x="80" y="75" width="5" height="5" fill="#847E87" />
<rect x="85" y="75" width="5" height="5" fill="#847E87" />
<rect x="90" y="75" width="5" height="5" fill="#847E87" />
<rect x="95" y="75" width="5" height="5" fill="#847E87" />
<rect x="100" y="75" width="5" height="5" fill="#847E87" />
<rect x="105" y="75" width="5" height="5" fill="#847E87" />
<rect x="110" y="75" width="5" height="5" fill="#847E87" />
<rect x="115" y="75" width="5" height="5" fill="#847E87" />
<rect x="120" y="75" width="5" height="5" fill="#847E87" />
<rect x="125" y="75" width="5" height="5" fill="#847E87" />
<rect x="130" y="75" width="5" height="5" fill="#847E87" />
<rect x="135" y="75" width="5" height="5" fill="#847E87" />
<rect x="140" y="75" width="5" height="5" fill="#847E87" />
<rect x="145" y="75" width="5" height="5" fill="#847E87" />
<rect x="150" y="75" width="5" height="5" fill="#847E87" />
<rect x="155" y="75" width="5" height="5" fill="#847E87" />
<rect x="160" y="75" width="5" height="5" fill="#847E87" />
<rect x="165" y="75" width="5" height="5" fill="#847E87" />
<rect x="170" y="75" width="5" height="5" fill="#847E87" />
<rect x="175" y="75" width="5" height="5" fill="#847E87" />
<rect x="180" y="75" width="5" height="5" fill="#000000" />
<rect x="185" y="75" width="5" height="5" fill="#000000" />
<rect x="190" y="75" width="5" height="5" fill="#000000" />
<rect x="195" y="75" width="5" height="5" fill="#000000" />
<rect x="200" y="75" width="5" height="5" fill="#000000" />
<rect x="205" y="75" width="5" height="5" fill="#000000" />
<rect x="210" y="75" width="5" height="5" fill="#000000" />
<rect x="215" y="75" width="5" height="5" fill="#000000" />
</svg>